<?xml version="1.0" encoding="UTF-8" standalone="no"?>
<!DOCTYPE svg PUBLIC "-//W3C//DTD SVG 1.1//EN" "http://www.w3.org/Graphics/SVG/1.1/DTD/svg11.dtd">
<svg width="100%" height="100%" viewBox="0 0 256 256" version="1.1" xmlns="http://www.w3.org/2000/svg" xmlns:xlink="http://www.w3.org/1999/xlink" xml:space="preserve" xmlns:serif="http://www.serif.com/" style="fill-rule:evenodd;clip-rule:evenodd;stroke-linejoin:round;stroke-miterlimit:2;">
    <g id="Cancel" transform="matrix(5.54545,6.8353e-32,6.8353e-32,5.54545,-2567.37,-10735.5)">
        <path d="M486.05,1937C498.192,1937 508.05,1946.86 508.05,1959C508.05,1971.14 498.192,1981 486.05,1981C473.908,1981 464.05,1971.14 464.05,1959C464.05,1946.86 473.908,1937 486.05,1937ZM478.979,1950.52L477.565,1951.93L484.636,1959L477.565,1966.07L478.979,1967.49L486.05,1960.41L493.121,1967.49L494.535,1966.07L487.464,1959L494.535,1951.93L493.121,1950.52L486.05,1957.59L478.979,1950.52Z" style="fill:rgb(210,0,0);"/>
    </g>
</svg>
