<?xml version="1.0" encoding="UTF-8" standalone="no"?>
<!DOCTYPE svg PUBLIC "-//W3C//DTD SVG 1.1//EN" "http://www.w3.org/Graphics/SVG/1.1/DTD/svg11.dtd">
<svg width="100%" height="100%" viewBox="0 0 40 40" version="1.1" xmlns="http://www.w3.org/2000/svg" xmlns:xlink="http://www.w3.org/1999/xlink" xml:space="preserve" xmlns:serif="http://www.serif.com/" style="fill-rule:evenodd;clip-rule:evenodd;stroke-linejoin:round;stroke-miterlimit:2;">
    <g transform="matrix(-0.620305,0,0,0.839332,25.2077,0.462208)">
        <g transform="matrix(-1.50139,0,0,1.10483,39.8625,1.72153)">
            <path d="M22.034,28.802C22.58,28.752 23.089,28.64 23.626,28.496C28.793,27.112 31.864,21.792 30.48,16.625C30.189,15.54 29.715,14.525 29.088,13.619L31.915,8.722C33.663,10.535 34.942,12.776 35.606,15.251C37.748,23.248 32.996,31.48 24.999,33.622C24.011,33.887 23.04,34.063 22.034,34.123L22.034,40.015L13,31.5L22.034,23.015L22.034,28.802Z" />
        </g>
        <g transform="matrix(1.50139,1.35303e-16,1.83867e-16,-1.10483,-24.8768,44.5033)">
            <path d="M22.161,28.786C22.706,28.736 23.089,28.64 23.626,28.496C28.793,27.112 31.864,21.792 30.48,16.625C30.189,15.54 29.715,14.525 29.088,13.619L31.915,8.722C33.663,10.535 34.942,12.776 35.606,15.251C37.748,23.248 32.996,31.48 24.999,33.622C24.011,33.887 23.167,34.048 22.161,34.107L22.161,40L13,31.5L22.161,23L22.161,28.786Z" />
        </g>
    </g>
</svg>
