<?xml version="1.0" encoding="UTF-8" standalone="no"?>
<!DOCTYPE svg PUBLIC "-//W3C//DTD SVG 1.1//EN" "http://www.w3.org/Graphics/SVG/1.1/DTD/svg11.dtd">
<svg width="100%" height="100%" viewBox="0 0 40 40" version="1.1" xmlns="http://www.w3.org/2000/svg" xmlns:xlink="http://www.w3.org/1999/xlink" xml:space="preserve" xmlns:serif="http://www.serif.com/" style="fill-rule:evenodd;clip-rule:evenodd;stroke-linejoin:round;stroke-miterlimit:2;">
    <g transform="matrix(-0.620305,0,0,0.839332,25.2077,0.462208)">
        <g transform="matrix(-1.61211,0,0,1.26151,40.6376,-0.0600993)">
            <path d="M18,11.916C18,11.408 17.786,10.921 17.406,10.561C17.025,10.202 16.509,10 15.971,10C12.7,10 6.3,10 3.029,10C2.491,10 1.975,10.202 1.594,10.561C1.214,10.921 1,11.408 1,11.916C1,15.188 1,21.812 1,25.084C1,25.592 1.214,26.079 1.594,26.439C1.975,26.798 2.491,27 3.029,27C6.3,27 12.7,27 15.971,27C16.509,27 17.025,26.798 17.406,26.439C17.786,26.079 18,25.592 18,25.084C18,21.812 18,15.188 18,11.916ZM39,11.916C39,11.408 38.786,10.921 38.406,10.561C38.025,10.202 37.509,10 36.971,10C33.7,10 27.3,10 24.029,10C23.491,10 22.975,10.202 22.594,10.561C22.214,10.921 22,11.408 22,11.916C22,15.188 22,21.812 22,25.084C22,25.592 22.214,26.079 22.594,26.439C22.975,26.798 23.491,27 24.029,27C27.3,27 33.7,27 36.971,27C37.509,27 38.025,26.798 38.406,26.439C38.786,26.079 39,25.592 39,25.084C39,21.812 39,15.188 39,11.916Z" />
        </g>
        <g transform="matrix(-1.61211,0,0,1.23908,40.6376,0.354796)">
            <rect x="19" y="6" width="2" height="25" />
        </g>
    </g>
</svg>
