<?xml version="1.0" encoding="UTF-8" standalone="no"?>
<!DOCTYPE svg PUBLIC "-//W3C//DTD SVG 1.1//EN" "http://www.w3.org/Graphics/SVG/1.1/DTD/svg11.dtd">
<svg width="100%" height="100%" viewBox="0 0 40 40" version="1.1" xmlns="http://www.w3.org/2000/svg" xmlns:xlink="http://www.w3.org/1999/xlink" xml:space="preserve" xmlns:serif="http://www.serif.com/" style="fill-rule:evenodd;clip-rule:evenodd;stroke-linejoin:round;stroke-miterlimit:2;">
    <g transform="matrix(0.920758,0,0,0.920758,2.50561,1.21236)">
        <path d="M11.937,17.699L11.937,21.044C11.937,21.656 11.573,22.209 11.012,22.451C10.45,22.693 9.798,22.578 9.354,22.158L1.874,15.1C1.568,14.811 1.394,14.408 1.394,13.986C1.394,13.564 1.568,13.161 1.874,12.872L9.354,5.814C9.798,5.394 10.45,5.279 11.012,5.521C11.573,5.763 11.937,6.316 11.937,6.928L11.937,10.272L22.937,10.272C23.783,10.272 24.469,10.958 24.469,11.804L24.469,16.168C24.469,17.014 23.783,17.699 22.937,17.699L11.937,17.699ZM26.063,23.11L26.063,19.765C26.063,19.153 26.427,18.6 26.988,18.358C27.55,18.116 28.201,18.231 28.646,18.651L36.126,25.709C36.432,25.999 36.606,26.402 36.606,26.823C36.606,27.245 36.432,27.648 36.126,27.937L28.646,34.996C28.201,35.415 27.55,35.53 26.988,35.288C26.427,35.046 26.063,34.493 26.063,33.882L26.063,30.537L15.063,30.537C14.217,30.537 13.531,29.851 13.531,29.005L13.531,24.641C13.531,23.795 14.217,23.11 15.063,23.11L26.063,23.11Z"/>
    </g>
</svg>
