<?xml version="1.0" encoding="UTF-8" standalone="no"?>
<!DOCTYPE svg PUBLIC "-//W3C//DTD SVG 1.1//EN" "http://www.w3.org/Graphics/SVG/1.1/DTD/svg11.dtd">
<svg width="100%" height="100%" viewBox="0 0 40 40" version="1.1" xmlns="http://www.w3.org/2000/svg" xmlns:xlink="http://www.w3.org/1999/xlink" xml:space="preserve" xmlns:serif="http://www.serif.com/" style="fill-rule:evenodd;clip-rule:evenodd;stroke-linejoin:round;stroke-miterlimit:2;">
    <g>
        <path d="M18,13.029L18,26.971C18,27.509 17.786,28.025 17.406,28.406C17.025,28.786 16.509,29 15.971,29L3.029,29C2.491,29 1.975,28.786 1.594,28.406C1.214,28.025 1,27.509 1,26.971L1,13.029C1,12.491 1.214,11.975 1.594,11.594C1.975,11.214 2.491,11 3.029,11L15.971,11C16.509,11 17.025,11.214 17.406,11.594C17.786,11.975 18,12.491 18,13.029ZM39,13.029L39,26.971C39,27.509 38.786,28.025 38.406,28.406C38.025,28.786 37.509,29 36.971,29L24.029,29C23.491,29 22.975,28.786 22.594,28.406C22.214,28.025 22,27.509 22,26.971L22,13.029C22,12.491 22.214,11.975 22.594,11.594C22.975,11.214 23.491,11 24.029,11L36.971,11C37.509,11 38.025,11.214 38.406,11.594C38.786,11.975 39,12.491 39,13.029ZM21,7L21,33L19,33L19,7L21,7Z"/>
    </g>
</svg>
