<?xml version="1.0" encoding="UTF-8" standalone="no"?>
<!DOCTYPE svg PUBLIC "-//W3C//DTD SVG 1.1//EN" "http://www.w3.org/Graphics/SVG/1.1/DTD/svg11.dtd">
<svg width="100%" height="100%" viewBox="0 0 40 40" version="1.1" xmlns="http://www.w3.org/2000/svg" xmlns:xlink="http://www.w3.org/1999/xlink" xml:space="preserve" xmlns:serif="http://www.serif.com/" style="fill-rule:evenodd;clip-rule:evenodd;stroke-linejoin:round;stroke-miterlimit:2;">
    <g transform="matrix(-0.620305,0,0,0.839332,25.2077,0.462208)">
        <g transform="matrix(-1.61211,0,0,1.25099,40.6376,0.938594)">
            <path d="M26,18.498C26,16.566 24.356,15 22.327,15C17.811,15 10.189,15 5.673,15C3.644,15 2,16.566 2,18.498C2,22.151 2,27.849 2,31.502C2,33.434 3.644,35 5.673,35C10.189,35 17.811,35 22.327,35C24.356,35 26,33.434 26,31.502C26,27.849 26,22.151 26,18.498Z" />
        </g>
        <path d="M-2.889,42.341L-16.002,42.341C-17.664,42.341 -19.01,41.345 -19.01,40.117L-19.01,11.346L-15.787,13.728L-15.787,36.879C-15.787,37.695 -15.348,38.478 -14.567,39.056C-13.785,39.633 -12.726,39.958 -11.621,39.958L-2.889,39.958L-2.889,42.341ZM30.962,18.512L30.962,8.485C30.962,7.669 30.523,6.886 29.741,6.308C28.96,5.731 27.9,5.406 26.795,5.406L-4.721,5.406L-7.945,3.024L31.181,3.024C32.842,3.024 34.189,4.019 34.189,5.247L34.189,18.512L30.962,18.512Z" />
        <g transform="matrix(-0.595969,-0.440448,-1.13993,0.842464,17.4661,11.4472)">
            <path d="M18.389,14.006L18.389,18L5,11L18.389,4L18.389,7.994L36,7.994L36,14.006L18.389,14.006Z" />
        </g>
    </g>
</svg>
