<?xml version="1.0" encoding="UTF-8" standalone="no"?>
<!DOCTYPE svg PUBLIC "-//W3C//DTD SVG 1.1//EN" "http://www.w3.org/Graphics/SVG/1.1/DTD/svg11.dtd">
<svg width="100%" height="100%" viewBox="0 0 300 300" version="1.1" xmlns="http://www.w3.org/2000/svg" xmlns:xlink="http://www.w3.org/1999/xlink" xml:space="preserve" xmlns:serif="http://www.serif.com/" style="fill-rule:evenodd;clip-rule:evenodd;stroke-linejoin:round;stroke-miterlimit:2;">
    <rect id="Play" x="0" y="0" width="300" height="300" style="fill:none;"/>
    <g id="Play1" serif:id="Play">
        <g transform="matrix(1.21457,0,0,1.21457,-55.8704,-35.2227)">
            <circle cx="169.5" cy="152.5" r="123.5" style="fill:rgb(128,128,128);"/>
            <path d="M169.5,29C237.662,29 293,84.338 293,152.5C293,220.662 237.662,276 169.5,276C101.338,276 46,220.662 46,152.5C46,84.338 101.338,29 169.5,29ZM169.5,37.233C233.117,37.233 284.767,88.883 284.767,152.5C284.767,216.117 233.117,267.767 169.5,267.767C105.883,267.767 54.233,216.117 54.233,152.5C54.233,88.883 105.883,37.233 169.5,37.233Z" style="fill:rgb(235,235,235);"/>
        </g>
        <g transform="matrix(6.12323e-17,1,-1,6.12323e-17,347,-59)">
            <path d="M209,82L317,253L101,253L209,82Z" style="fill:rgb(235,235,235);"/>
        </g>
    </g>
</svg>
