<?xml version="1.0" encoding="UTF-8" standalone="no"?>
<!DOCTYPE svg PUBLIC "-//W3C//DTD SVG 1.1//EN" "http://www.w3.org/Graphics/SVG/1.1/DTD/svg11.dtd">
<svg width="100%" height="100%" viewBox="0 0 256 256" version="1.1" xmlns="http://www.w3.org/2000/svg" xmlns:xlink="http://www.w3.org/1999/xlink" xml:space="preserve" xmlns:serif="http://www.serif.com/" style="fill-rule:evenodd;clip-rule:evenodd;stroke-linejoin:round;stroke-miterlimit:2;">
    <g transform="matrix(1,0,0,1,3,-3.88857)">
        <path d="M128,35.819C65.633,35.819 14.999,86.453 14.999,148.82C14.999,163.127 17.663,176.817 22.549,189.403L22.475,189.447C11.612,170.791 5.889,149.588 5.889,128C5.889,60.56 60.56,5.889 128,5.889L128,35.819Z" style="fill:url(#_Linear1);"/>
    </g>
    <g transform="matrix(-1,1.22465e-16,-1.22465e-16,-1,258,251.914)">
        <path d="M128,35.819C65.633,35.819 14.999,86.453 14.999,148.82C14.999,163.127 17.663,176.817 22.549,189.403L22.475,189.447C11.612,170.791 5.889,149.588 5.889,128C5.889,60.56 60.56,5.889 128,5.889L128,35.819Z" style="fill:url(#_Linear2);"/>
    </g>
    <defs>
        <linearGradient id="_Linear1" x1="0" y1="0" x2="1" y2="0" gradientUnits="userSpaceOnUse" gradientTransform="matrix(-89.3028,140.734,-140.734,-89.3028,144.417,48.7125)"><stop offset="0" style="stop-color:rgb(13,13,13);stop-opacity:1"/><stop offset="1" style="stop-color:rgb(175,175,175);stop-opacity:0.5"/></linearGradient>
        <linearGradient id="_Linear2" x1="0" y1="0" x2="1" y2="0" gradientUnits="userSpaceOnUse" gradientTransform="matrix(-89.3028,140.734,-140.734,-89.3028,144.417,48.7125)"><stop offset="0" style="stop-color:rgb(13,13,13);stop-opacity:1"/><stop offset="1" style="stop-color:rgb(175,175,175);stop-opacity:0.5"/></linearGradient>
    </defs>
</svg>
