<?xml version="1.0" encoding="UTF-8" standalone="no"?>
<!DOCTYPE svg PUBLIC "-//W3C//DTD SVG 1.1//EN" "http://www.w3.org/Graphics/SVG/1.1/DTD/svg11.dtd">
<svg width="100%" height="100%" viewBox="0 0 40 42" version="1.1" xmlns="http://www.w3.org/2000/svg" xmlns:xlink="http://www.w3.org/1999/xlink" xml:space="preserve" xmlns:serif="http://www.serif.com/" style="fill-rule:evenodd;clip-rule:evenodd;stroke-linejoin:round;stroke-miterlimit:2;">
    <g transform="matrix(1.94013e-16,0.689169,-0.784942,2.23746e-16,110.436,-203.562)">
        <g id="play">
            <path d="M304.588,115.214C304.588,105.205 313.901,97.079 325.373,97.079C336.844,97.079 346.157,105.205 346.157,115.214C346.157,125.223 336.844,133.349 325.373,133.349L325.373,128.287C333.642,128.287 340.356,122.43 340.356,115.214C340.356,107.999 333.642,102.141 325.373,102.141C317.103,102.141 310.39,107.999 310.39,115.214L304.588,115.214Z"/>
            <g transform="matrix(-2.33361,-6.00363e-16,1.21708e-15,-2.59724,320.246,134.358)">
                <path d="M5.454,3.35L9.398,7.505L1.511,7.505L5.454,3.35Z"/>
            </g>
        </g>
    </g>
</svg>
