<?xml version="1.0" encoding="UTF-8" standalone="no"?>
<!DOCTYPE svg PUBLIC "-//W3C//DTD SVG 1.1//EN" "http://www.w3.org/Graphics/SVG/1.1/DTD/svg11.dtd">
<svg width="100%" height="100%" viewBox="0 0 3508 2481" version="1.1" xmlns="http://www.w3.org/2000/svg" xmlns:xlink="http://www.w3.org/1999/xlink" xml:space="preserve" xmlns:serif="http://www.serif.com/" style="fill-rule:evenodd;clip-rule:evenodd;stroke-linecap:round;stroke-linejoin:round;stroke-miterlimit:1.5;">
    <g transform="matrix(1.52013,0,0,1.52013,-159.912,-106.681)">
        <g transform="matrix(1,0,0,1,-324,-189)">
            <path d="M1796,417.24C1796,407.629 1792.18,398.411 1785.39,391.614C1778.59,384.818 1769.37,381 1759.76,381L1312.24,381C1302.63,381 1293.41,384.818 1286.61,391.614C1279.82,398.411 1276,407.629 1276,417.24L1276,538.76C1276,548.371 1279.82,557.589 1286.61,564.386C1293.41,571.182 1302.63,575 1312.24,575L1759.76,575C1769.37,575 1778.59,571.182 1785.39,564.386C1792.18,557.589 1796,548.371 1796,538.76L1796,417.24Z" style="fill:rgb(235,235,235);"/>
            <clipPath id="_clip1">
                <path d="M1796,417.24C1796,407.629 1792.18,398.411 1785.39,391.614C1778.59,384.818 1769.37,381 1759.76,381L1312.24,381C1302.63,381 1293.41,384.818 1286.61,391.614C1279.82,398.411 1276,407.629 1276,417.24L1276,538.76C1276,548.371 1279.82,557.589 1286.61,564.386C1293.41,571.182 1302.63,575 1312.24,575L1759.76,575C1769.37,575 1778.59,571.182 1785.39,564.386C1792.18,557.589 1796,548.371 1796,538.76L1796,417.24Z"/>
            </clipPath>
            <g clip-path="url(#_clip1)">
                <g transform="matrix(1,0,0,1,70.0732,5.78711)">
                    <text x="1299.31px" y="489.815px" style="font-family:'ArialMT', 'Arial', sans-serif;font-size:66.667px;">not created</text>
                </g>
            </g>
            <path d="M1796,417.24C1796,407.629 1792.18,398.411 1785.39,391.614C1778.59,384.818 1769.37,381 1759.76,381L1312.24,381C1302.63,381 1293.41,384.818 1286.61,391.614C1279.82,398.411 1276,407.629 1276,417.24L1276,538.76C1276,548.371 1279.82,557.589 1286.61,564.386C1293.41,571.182 1302.63,575 1312.24,575L1759.76,575C1769.37,575 1778.59,571.182 1785.39,564.386C1792.18,557.589 1796,548.371 1796,538.76L1796,417.24Z" style="fill:none;stroke:black;stroke-width:5.01px;"/>
        </g>
        <g transform="matrix(1,0,0,1,-324,209)">
            <path d="M1796,417.24C1796,407.629 1792.18,398.411 1785.39,391.614C1778.59,384.818 1769.37,381 1759.76,381L1312.24,381C1302.63,381 1293.41,384.818 1286.61,391.614C1279.82,398.411 1276,407.629 1276,417.24L1276,538.76C1276,548.371 1279.82,557.589 1286.61,564.386C1293.41,571.182 1302.63,575 1312.24,575L1759.76,575C1769.37,575 1778.59,571.182 1785.39,564.386C1792.18,557.589 1796,548.371 1796,538.76L1796,417.24Z" style="fill:rgb(235,235,235);"/>
            <clipPath id="_clip2">
                <path d="M1796,417.24C1796,407.629 1792.18,398.411 1785.39,391.614C1778.59,384.818 1769.37,381 1759.76,381L1312.24,381C1302.63,381 1293.41,384.818 1286.61,391.614C1279.82,398.411 1276,407.629 1276,417.24L1276,538.76C1276,548.371 1279.82,557.589 1286.61,564.386C1293.41,571.182 1302.63,575 1312.24,575L1759.76,575C1769.37,575 1778.59,571.182 1785.39,564.386C1792.18,557.589 1796,548.371 1796,538.76L1796,417.24Z"/>
            </clipPath>
            <g clip-path="url(#_clip2)">
                <g transform="matrix(1,0,0,1,70.0732,5.78711)">
                    <text x="1328.91px" y="489.815px" style="font-family:'ArialMT', 'Arial', sans-serif;font-size:66.667px;">unloaded</text>
                </g>
            </g>
            <path d="M1796,417.24C1796,407.629 1792.18,398.411 1785.39,391.614C1778.59,384.818 1769.37,381 1759.76,381L1312.24,381C1302.63,381 1293.41,384.818 1286.61,391.614C1279.82,398.411 1276,407.629 1276,417.24L1276,538.76C1276,548.371 1279.82,557.589 1286.61,564.386C1293.41,571.182 1302.63,575 1312.24,575L1759.76,575C1769.37,575 1778.59,571.182 1785.39,564.386C1792.18,557.589 1796,548.371 1796,538.76L1796,417.24Z" style="fill:none;stroke:black;stroke-width:5.01px;"/>
        </g>
        <g transform="matrix(1,0,0,1,-324,607)">
            <path d="M1796,417.24C1796,407.629 1792.18,398.411 1785.39,391.614C1778.59,384.818 1769.37,381 1759.76,381L1312.24,381C1302.63,381 1293.41,384.818 1286.61,391.614C1279.82,398.411 1276,407.629 1276,417.24L1276,538.76C1276,548.371 1279.82,557.589 1286.61,564.386C1293.41,571.182 1302.63,575 1312.24,575L1759.76,575C1769.37,575 1778.59,571.182 1785.39,564.386C1792.18,557.589 1796,548.371 1796,538.76L1796,417.24Z" style="fill:rgb(235,235,235);"/>
            <clipPath id="_clip3">
                <path d="M1796,417.24C1796,407.629 1792.18,398.411 1785.39,391.614C1778.59,384.818 1769.37,381 1759.76,381L1312.24,381C1302.63,381 1293.41,384.818 1286.61,391.614C1279.82,398.411 1276,407.629 1276,417.24L1276,538.76C1276,548.371 1279.82,557.589 1286.61,564.386C1293.41,571.182 1302.63,575 1312.24,575L1759.76,575C1769.37,575 1778.59,571.182 1785.39,564.386C1792.18,557.589 1796,548.371 1796,538.76L1796,417.24Z"/>
            </clipPath>
            <g clip-path="url(#_clip3)">
                <g transform="matrix(1,0,0,1,70.0732,5.78711)">
                    <text x="1230.75px" y="489.815px" style="font-family:'ArialMT', 'Arial', sans-serif;font-size:66.667px;">manifest loaded</text>
                </g>
            </g>
            <path d="M1796,417.24C1796,407.629 1792.18,398.411 1785.39,391.614C1778.59,384.818 1769.37,381 1759.76,381L1312.24,381C1302.63,381 1293.41,384.818 1286.61,391.614C1279.82,398.411 1276,407.629 1276,417.24L1276,538.76C1276,548.371 1279.82,557.589 1286.61,564.386C1293.41,571.182 1302.63,575 1312.24,575L1759.76,575C1769.37,575 1778.59,571.182 1785.39,564.386C1792.18,557.589 1796,548.371 1796,538.76L1796,417.24Z" style="fill:none;stroke:black;stroke-width:5.01px;"/>
        </g>
        <g transform="matrix(1,0,0,1,-324,1005)">
            <path d="M1796,417.24C1796,407.629 1792.18,398.411 1785.39,391.614C1778.59,384.818 1769.37,381 1759.76,381L1312.24,381C1302.63,381 1293.41,384.818 1286.61,391.614C1279.82,398.411 1276,407.629 1276,417.24L1276,538.76C1276,548.371 1279.82,557.589 1286.61,564.386C1293.41,571.182 1302.63,575 1312.24,575L1759.76,575C1769.37,575 1778.59,571.182 1785.39,564.386C1792.18,557.589 1796,548.371 1796,538.76L1796,417.24Z" style="fill:rgb(235,235,235);"/>
            <clipPath id="_clip4">
                <path d="M1796,417.24C1796,407.629 1792.18,398.411 1785.39,391.614C1778.59,384.818 1769.37,381 1759.76,381L1312.24,381C1302.63,381 1293.41,384.818 1286.61,391.614C1279.82,398.411 1276,407.629 1276,417.24L1276,538.76C1276,548.371 1279.82,557.589 1286.61,564.386C1293.41,571.182 1302.63,575 1312.24,575L1759.76,575C1769.37,575 1778.59,571.182 1785.39,564.386C1792.18,557.589 1796,548.371 1796,538.76L1796,417.24Z"/>
            </clipPath>
            <g clip-path="url(#_clip4)">
                <g transform="matrix(1,0,0,1,70.0732,5.78711)">
                    <text x="1365.99px" y="489.815px" style="font-family:'ArialMT', 'Arial', sans-serif;font-size:66.667px;">loaded</text>
                </g>
            </g>
            <path d="M1796,417.24C1796,407.629 1792.18,398.411 1785.39,391.614C1778.59,384.818 1769.37,381 1759.76,381L1312.24,381C1302.63,381 1293.41,384.818 1286.61,391.614C1279.82,398.411 1276,407.629 1276,417.24L1276,538.76C1276,548.371 1279.82,557.589 1286.61,564.386C1293.41,571.182 1302.63,575 1312.24,575L1759.76,575C1769.37,575 1778.59,571.182 1785.39,564.386C1792.18,557.589 1796,548.371 1796,538.76L1796,417.24Z" style="fill:none;stroke:black;stroke-width:5.01px;"/>
        </g>
        <g id="flechas" transform="matrix(1,0,0,1,-324,-189)">
            <g transform="matrix(1,0,0,1,0.118001,0)">
                <g transform="matrix(0.657837,-0,-0,0.657837,429.078,259.179)">
                    <path d="M1711.11,733.05L1682.49,790.198L1653.94,733.017C1668.22,747.316 1696.81,747.333 1711.11,733.05Z"/>
                    <path d="M1682.67,481.611C1682.67,481.611 1682.57,658.553 1682.52,744.466" style="fill:none;stroke:black;stroke-width:19.05px;stroke-linecap:butt;"/>
                </g>
            </g>
            <g transform="matrix(1,0,0,1,-80.764,398)">
                <g transform="matrix(0.657837,-0,-0,0.657837,509.96,-138.821)">
                    <path d="M1588.15,1338.06L1559.54,1395.21L1530.99,1338.03C1545.27,1352.33 1573.86,1352.35 1588.15,1338.06Z"/>
                    <path d="M1559.72,1086.62C1559.72,1086.62 1559.62,1263.57 1559.57,1349.48" style="fill:none;stroke:black;stroke-width:19.05px;stroke-linecap:butt;"/>
                </g>
            </g>
            <g transform="matrix(1,0,0,1,85.118,398)">
                <g transform="matrix(0.657837,-0,-0,0.657837,344.078,-138.821)">
                    <path d="M1840.43,1143.81L1811.88,1086.62L1783.27,1143.77L1811.87,1115.21L1840.43,1143.81Z"/>
                    <path d="M1811.87,1115.21C1811.82,1191.68 1811.7,1395.21 1811.7,1395.21" style="fill:none;stroke:black;stroke-width:19.05px;stroke-linecap:butt;"/>
                </g>
            </g>
            <g transform="matrix(1,0,0,1,-80.646,796)">
                <g transform="matrix(0.657837,-0,-0,0.657837,509.842,-536.821)">
                    <path d="M1588.33,1943.08L1559.72,2000.23L1531.17,1943.04C1545.45,1957.34 1574.04,1957.36 1588.33,1943.08Z"/>
                    <path d="M1559.9,1691.64C1559.9,1691.64 1559.8,1868.58 1559.75,1954.49" style="fill:none;stroke:black;stroke-width:19.05px;stroke-linecap:butt;"/>
                </g>
            </g>
            <g transform="matrix(1,0,0,1,85.236,796)">
                <g transform="matrix(0.657837,-0,-0,0.657837,343.96,-536.821)">
                    <path d="M1840.61,1748.82L1812.06,1691.64L1783.44,1748.79L1812.04,1720.22L1840.61,1748.82Z"/>
                    <path d="M1812.04,1720.22C1812,1796.69 1811.88,2000.23 1811.88,2000.23" style="fill:none;stroke:black;stroke-width:19.05px;stroke-linecap:butt;"/>
                </g>
            </g>
            <g transform="matrix(1,0,0,1,267.118,1101.27)">
                <g transform="matrix(0.657837,-0,-0,0.657837,162.078,-842.089)">
                    <path d="M2136.41,972.314L2079.25,943.731L2136.41,915.149C2122.12,929.44 2122.12,958.022 2136.41,972.314Z"/>
                    <path d="M2088.55,2155.68L3339.44,2155.68L3339.44,943.731L2124.98,943.731" style="fill:none;stroke:black;stroke-width:19.05px;stroke-linecap:butt;"/>
                </g>
            </g>
            <g transform="matrix(1.07273,0,0,1,-606.583,101)">
                <g transform="matrix(0.613238,-0,-0,0.657837,965.556,158.179)">
                    <path d="M1228.52,2125.27L1285.74,2153.76L1228.62,2182.44C1242.89,2168.12 1242.84,2139.54 1228.52,2125.27Z"/>
                    <path d="M1288.78,943.731L168.459,943.731L168.437,2155.68C168.437,2155.68 1030.02,2154.2 1240,2153.84" style="fill:none;stroke:black;stroke-width:19.05px;stroke-linecap:butt;"/>
                </g>
            </g>
        </g>
        <g id="textos" transform="matrix(1,0,0,1,-324,-189)">
            <g transform="matrix(1,0,0,1,154.156,6.21615)">
                <text x="1435.93px" y="694.754px" style="font-family:'Menlo-Regular', 'Menlo', monospace;font-size:41.667px;">new Paella(&apos;container-id&apos;, initParams)</text>
            </g>
            <g transform="matrix(1,0,0,1,-689.636,372.079)">
                <text x="1435.93px" y="694.754px" style="font-family:'Menlo-Regular', 'Menlo', monospace;font-size:41.667px;">await player.loadManifest()</text>
            </g>
            <g transform="matrix(1,0,0,1,-645.84,789.897)">
                <text x="1435.93px" y="694.754px" style="font-family:'Menlo-Regular', 'Menlo', monospace;font-size:41.667px;">await player.loadPlayer()</text>
            </g>
            <g transform="matrix(1,0,0,1,-873.465,579.054)">
                <text x="1435.93px" y="694.754px" style="font-family:'Menlo-Regular', 'Menlo', monospace;font-size:41.667px;">await player.load()</text>
            </g>
            <g transform="matrix(1,0,0,1,688.133,600.213)">
                <text x="1385.76px" y="694.754px" style="font-family:'Menlo-Regular', 'Menlo', monospace;font-size:41.667px;">await player.unload()</text>
            </g>
            <g transform="matrix(1,0,0,1,279.909,372.079)">
                <text x="1385.76px" y="694.754px" style="font-family:'Menlo-Regular', 'Menlo', monospace;font-size:41.667px;">await player.unloadManifest()</text>
            </g>
            <g transform="matrix(1,0,0,1,279.909,789.897)">
                <text x="1385.76px" y="694.754px" style="font-family:'Menlo-Regular', 'Menlo', monospace;font-size:41.667px;">await player.unloadPlayer()</text>
            </g>
        </g>
    </g>
</svg>
